<?xml version="1.0" encoding="UTF-8" standalone="no"?>
<!DOCTYPE svg PUBLIC "-//W3C//DTD SVG 1.1//EN"
 "http://www.w3.org/Graphics/SVG/1.1/DTD/svg11.dtd">
<!-- Generated by graphviz version 2.38.0 (20140413.2041)
 -->
<!-- Title: Network Topology Pages: 1 -->
<svg width="450pt" height="479pt"
 viewBox="0.00 0.00 450.00 479.00" xmlns="http://www.w3.org/2000/svg" xmlns:xlink="http://www.w3.org/1999/xlink">
<g id="graph0" class="graph" transform="scale(1 1) rotate(0) translate(4 475)">
<title>Network Topology</title>
<polygon fill="white" stroke="none" points="-4,4 -4,-475 446,-475 446,4 -4,4"/>
<!-- SW4.pyeng.lab -->
<g id="node1" class="node"><title>SW4.pyeng.lab</title>
<polygon fill="none" stroke="black" points="442,-59 311,-59 311,-0 442,-0 442,-59"/>
<text text-anchor="middle" x="376.5" y="-25.8" font-family="Times New Roman,serif" font-size="14.00">SW4.pyeng.lab</text>
</g>
<!-- SW3.pyeng.lab -->
<g id="node2" class="node"><title>SW3.pyeng.lab</title>
<polygon fill="none" stroke="black" points="131,-59 0,-59 0,-0 131,-0 131,-59"/>
<text text-anchor="middle" x="65.5" y="-25.8" font-family="Times New Roman,serif" font-size="14.00">SW3.pyeng.lab</text>
</g>
<!-- SW4.pyeng.lab&#45;&#45;SW3.pyeng.lab -->
<g id="edge8" class="edge"><title>SW4.pyeng.lab&#45;&#45;SW3.pyeng.lab</title>
<path fill="none" stroke="black" d="M310.837,-29.5C250.925,-29.5 191.013,-29.5 131.102,-29.5"/>
<text text-anchor="middle" x="141.602" y="-21.5" font-family="Times New Roman,serif" font-size="10.00">Gi0/3</text>
<text text-anchor="middle" x="300.337" y="-21.5" font-family="Times New Roman,serif" font-size="10.00">Gi0/3</text>
</g>
<!-- SW2.pyeng.lab -->
<g id="node3" class="node"><title>SW2.pyeng.lab</title>
<polygon fill="none" stroke="black" points="131,-265 0,-265 0,-206 131,-206 131,-265"/>
<text text-anchor="middle" x="65.5" y="-231.8" font-family="Times New Roman,serif" font-size="14.00">SW2.pyeng.lab</text>
</g>
<!-- SW4.pyeng.lab&#45;&#45;SW2.pyeng.lab -->
<g id="edge9" class="edge"><title>SW4.pyeng.lab&#45;&#45;SW2.pyeng.lab</title>
<path fill="none" stroke="black" d="M331.941,-59.0148C272.904,-98.1197 169.35,-166.712 110.228,-205.873"/>
<text text-anchor="middle" x="99.7281" y="-197.873" font-family="Times New Roman,serif" font-size="10.00">Gi0/1</text>
<text text-anchor="middle" x="321.441" y="-62.0148" font-family="Times New Roman,serif" font-size="10.00">Gi0/1</text>
</g>
<!-- SW1.pyeng.lab -->
<g id="node4" class="node"><title>SW1.pyeng.lab</title>
<polygon fill="none" stroke="black" points="442,-265 311,-265 311,-206 442,-206 442,-265"/>
<text text-anchor="middle" x="376.5" y="-231.8" font-family="Times New Roman,serif" font-size="14.00">SW1.pyeng.lab</text>
</g>
<!-- SW4.pyeng.lab&#45;&#45;SW1.pyeng.lab -->
<g id="edge7" class="edge"><title>SW4.pyeng.lab&#45;&#45;SW1.pyeng.lab</title>
<path fill="none" stroke="black" d="M376.5,-59.0148C376.5,-98.0641 376.5,-166.517 376.5,-205.706"/>
<text text-anchor="middle" x="366" y="-197.706" font-family="Times New Roman,serif" font-size="10.00">Gi0/2</text>
<text text-anchor="middle" x="366" y="-62.0148" font-family="Times New Roman,serif" font-size="10.00">Gi0/2</text>
</g>
<!-- SW3.pyeng.lab&#45;&#45;SW2.pyeng.lab -->
<g id="edge5" class="edge"><title>SW3.pyeng.lab&#45;&#45;SW2.pyeng.lab</title>
<path fill="none" stroke="black" d="M60.5994,-59.0148C58.1394,-98.0641 58.1335,-166.517 60.5819,-205.706"/>
<text text-anchor="middle" x="50.0819" y="-197.706" font-family="Times New Roman,serif" font-size="10.00">Gi1/1</text>
<text text-anchor="middle" x="50.0994" y="-62.0148" font-family="Times New Roman,serif" font-size="10.00">Gi1/1</text>
</g>
<!-- SW3.pyeng.lab&#45;&#45;SW2.pyeng.lab -->
<g id="edge6" class="edge"><title>SW3.pyeng.lab&#45;&#45;SW2.pyeng.lab</title>
<path fill="none" stroke="black" d="M70.4006,-59.0148C72.8606,-98.0641 72.8665,-166.517 70.4181,-205.706"/>
<text text-anchor="middle" x="80.9181" y="-197.706" font-family="Times New Roman,serif" font-size="10.00">Gi0/2</text>
<text text-anchor="middle" x="80.9006" y="-62.0148" font-family="Times New Roman,serif" font-size="10.00">Gi0/1</text>
</g>
<!-- SW3.pyeng.lab&#45;&#45;SW1.pyeng.lab -->
<g id="edge4" class="edge"><title>SW3.pyeng.lab&#45;&#45;SW1.pyeng.lab</title>
<path fill="none" stroke="black" d="M110.059,-59.0148C169.096,-98.1197 272.65,-166.712 331.772,-205.873"/>
<text text-anchor="middle" x="321.272" y="-197.873" font-family="Times New Roman,serif" font-size="10.00">Gi0/1</text>
<text text-anchor="middle" x="120.559" y="-62.0148" font-family="Times New Roman,serif" font-size="10.00">Gi0/2</text>
</g>
<!-- SW2.pyeng.lab&#45;&#45;SW1.pyeng.lab -->
<g id="edge2" class="edge"><title>SW2.pyeng.lab&#45;&#45;SW1.pyeng.lab</title>
<path fill="none" stroke="green" d="M131.102,-250.23C191.013,-260.087 250.925,-260.09 310.837,-250.24"/>
<text text-anchor="middle" x="300.337" y="-242.24" font-family="Times New Roman,serif" font-size="10.00">Gi0/3</text>
<text text-anchor="middle" x="141.602" y="-242.23" font-family="Times New Roman,serif" font-size="10.00">Gi0/3</text>
</g>
<!-- SW2.pyeng.lab&#45;&#45;SW1.pyeng.lab -->
<g id="edge3" class="edge"><title>SW2.pyeng.lab&#45;&#45;SW1.pyeng.lab</title>
<path fill="none" stroke="green" d="M131.102,-220.77C191.013,-210.913 250.925,-210.91 310.837,-220.76"/>
<text text-anchor="middle" x="300.337" y="-212.76" font-family="Times New Roman,serif" font-size="10.00">Gi1/0</text>
<text text-anchor="middle" x="141.602" y="-212.77" font-family="Times New Roman,serif" font-size="10.00">Gi1/0</text>
</g>
<!-- R2.pyeng.lab -->
<g id="node5" class="node"><title>R2.pyeng.lab</title>
<polygon fill="none" stroke="black" points="436,-471 317,-471 317,-412 436,-412 436,-471"/>
<text text-anchor="middle" x="376.5" y="-437.8" font-family="Times New Roman,serif" font-size="14.00">R2.pyeng.lab</text>
</g>
<!-- SW1.pyeng.lab&#45;&#45;R2.pyeng.lab -->
<g id="edge1" class="edge"><title>SW1.pyeng.lab&#45;&#45;R2.pyeng.lab</title>
<path fill="none" stroke="black" d="M376.5,-265.015C376.5,-304.064 376.5,-372.517 376.5,-411.706"/>
<text text-anchor="middle" x="366" y="-403.706" font-family="Times New Roman,serif" font-size="10.00">Et0/2</text>
<text text-anchor="middle" x="366" y="-268.015" font-family="Times New Roman,serif" font-size="10.00">Gi0/0</text>
</g>
</g>
</svg>
